<svg xmlns="http://www.w3.org/2000/svg" width="27" height="27"><path fill="#BC2A4D" d="M23 0H4C1.8 0 0 1.8 0 4v19c0 2.2 1.8 4 4 4h19c2.2 0 4-1.8 4-4V4c0-2.2-1.8-4-4-4z"/><path fill="#FFF" d="M23 1H4C2.3 1 1 2.3 1 4v19c0 1.7 1.3 3 3 3h19c1.7 0 3-1.3 3-3V4c0-1.7-1.3-3-3-3z"/><linearGradient id="a" gradientUnits="userSpaceOnUse" x1="13.532" y1="25" x2="13.532" y2="2.063"><stop offset="0" stop-color="#fff"/><stop offset="1" stop-color="#dcdfe3"/></linearGradient><path fill="url(#a)" d="M22.8 2.1H4.2C3 2.1 2.1 3 2.1 4.2v18.6C2.1 24 3 25 4.2 25h18.6c1.2 0 2.2-1 2.2-2.2V4.2c0-1.2-1-2.1-2.2-2.1z"/><path fill="#BC2A4D" d="M6 7.3h9.4v1.3H6V7.3zm0 2.5h15V11H6V9.8zm0 2.5h15v1.3H6v-1.3zm0 2.5h15V16H6v-1.2zm0 2.5h15v1.3H6v-1.3zm0 2.5h12.5V21H6v-1.2z"/><g><path fill="#196DB5" d="M23 0H4C1.8 0 0 1.8 0 4v19c0 2.2 1.8 4 4 4h19c2.2 0 4-1.8 4-4V4c0-2.2-1.8-4-4-4z"/><path fill="#FFF" d="M23 1H4C2.3 1 1 2.3 1 4v19c0 1.7 1.3 3 3 3h19c1.7 0 3-1.3 3-3V4c0-1.7-1.3-3-3-3z"/><linearGradient id="b" gradientUnits="userSpaceOnUse" x1="13.531" y1="2.063" x2="13.531" y2="25"><stop offset="0" stop-color="#dcdfe4"/><stop offset="1" stop-color="#fff"/></linearGradient><path fill="url(#b)" d="M22.8 2.1H4.2C3 2.1 2.1 3 2.1 4.2v18.6C2.1 24 3 25 4.2 25h18.6c1.2 0 2.2-1 2.2-2.2V4.2c0-1.2-1-2.1-2.2-2.1z"/><path fill="#666" d="M16.1 10.9l-2.2 7.5c-.1.4-.2.7-.2.8 0 .1 0 .2.1.2.1.1.1.1.2.1s.2-.1.4-.2c.3-.3.7-.7 1.1-1.4l.4.2c-1.1 1.9-2.2 2.8-3.4 2.8-.5 0-.8-.1-1.1-.4-.3-.3-.4-.6-.4-1 0-.3.1-.6.2-1l1.5-5.1c.1-.5.2-.9.2-1.1 0-.2-.1-.3-.2-.4-.1-.1-.3-.2-.6-.2h-.4l.1-.4 3.6-.6h.7zM15.4 6c.4 0 .8.2 1.1.5.3.3.5.6.5 1.1s-.2.8-.5 1.1c-.3.3-.7.5-1.1.5-.4 0-.8-.2-1.1-.5-.3-.3-.4-.7-.4-1.1s.2-.8.5-1.1c.2-.3.6-.5 1-.5z"/></g><g fill="#BC2A4D"><path d="M20.5 3h1v3h-1z"/><path d="M23.757 4.612l.31.951-2.851.932-.31-.951z"/><path d="M23.232 8.095l-.809.588-1.765-2.425.809-.589z"/><path d="M19.685 8.717l-.81-.587 1.762-2.428.81.587z"/><path d="M18.026 5.494l.308-.951 2.854.926-.309.951z"/></g></svg>