<svg xmlns="http://www.w3.org/2000/svg" width="27" height="27"><path fill="#196DB5" d="M23 0H4C1.8 0 0 1.8 0 4v19c0 2.2 1.8 4 4 4h19c2.2 0 4-1.8 4-4V4c0-2.2-1.8-4-4-4z"/><path fill="#FFF" d="M23 1H4C2.3 1 1 2.3 1 4v19c0 1.7 1.3 3 3 3h19c1.7 0 3-1.3 3-3V4c0-1.7-1.3-3-3-3z"/><linearGradient id="c" gradientUnits="userSpaceOnUse" x1="13.531" y1="2.063" x2="13.531" y2="25"><stop offset="0" stop-color="#dcdfe4"/><stop offset="1" stop-color="#fff"/></linearGradient><path fill="url(#c)" d="M22.8 2.1H4.2C3 2.1 2.1 3 2.1 4.2v18.6C2.1 24 3 25 4.2 25h18.6c1.2 0 2.2-1 2.2-2.2V4.2c0-1.2-1-2.1-2.2-2.1z"/><path fill="#FFF" d="M23 1H4C2.3 1 1 2.3 1 4v19c0 1.7 1.3 3 3 3h19c1.7 0 3-1.3 3-3V4c0-1.7-1.3-3-3-3z"/><linearGradient id="d" gradientUnits="userSpaceOnUse" x1="13.532" y1="25" x2="13.532" y2="2.063"><stop offset="0" stop-color="#dcdfe4"/><stop offset="1" stop-color="#fff"/></linearGradient><path fill="url(#d)" d="M22.8 2.1H4.2C3 2.1 2.1 3 2.1 4.2v18.6C2.1 24 3 25 4.2 25h18.6c1.2 0 2.2-1 2.2-2.2V4.2c0-1.2-1-2.1-2.2-2.1z"/><path fill="#666" d="M6 19.8h15V21H6v-1.2zm0-2.5h15v1.3H6v-1.3zm0-2.5h7.5V16H6v-1.2zm0-2.5h15v1.3H6v-1.3zm0-2.5h15V11H6V9.8zm0-2.5h7.5v1.3H6V7.3z"/></svg>