<svg xmlns="http://www.w3.org/2000/svg" width="27" height="27"><path fill="#BC2A4D" d="M23 0H4C1.8 0 0 1.8 0 4v19c0 2.2 1.8 4 4 4h19c2.2 0 4-1.8 4-4V4c0-2.2-1.8-4-4-4z"/><path fill="#FFF" d="M23 1H4C2.3 1 1 2.3 1 4v19c0 1.7 1.3 3 3 3h19c1.7 0 3-1.3 3-3V4c0-1.7-1.3-3-3-3z"/><linearGradient id="a" gradientUnits="userSpaceOnUse" x1="13.532" y1="25" x2="13.532" y2="2.063"><stop offset="0" stop-color="#fff"/><stop offset="1" stop-color="#dcdfe3"/></linearGradient><path fill="url(#a)" d="M22.8 2.1H4.2C3 2.1 2.1 3 2.1 4.2v18.6C2.1 24 3 25 4.2 25h18.6c1.2 0 2.2-1 2.2-2.2V4.2c0-1.2-1-2.1-2.2-2.1z"/><path fill="#BC2A4D" d="M12.3 17.5c.5 0 .9.2 1.2.5.3.3.5.7.5 1.2s-.2.9-.5 1.2c-.3.3-.7.5-1.2.5s-.9-.2-1.2-.5c-.3-.3-.5-.7-.5-1.2s.2-.9.5-1.2c.3-.3.7-.5 1.2-.5zm1-.9h-.4c.3-1.9.6-3.8.8-5.7.2-1.9.4-3.2.8-3.9.4-.7.8-1 1.4-1 .3 0 .6.1.8.4.2.2.3.6.3 1 0 .3-.1.7-.2 1s-.5 1.2-1.1 2.5c-1 2.1-1.8 4-2.4 5.7z"/></svg>