<?xml version="1.0" encoding="utf-8"?>
<!-- Generator: Adobe Illustrator 13.0.0, SVG Export Plug-In . SVG Version: 6.00 Build 14948)  -->
<!DOCTYPE svg PUBLIC "-//W3C//DTD SVG 1.1//EN" "http://www.w3.org/Graphics/SVG/1.1/DTD/svg11.dtd">
<svg version="1.1" id="Calque_1" xmlns="http://www.w3.org/2000/svg" xmlns:xlink="http://www.w3.org/1999/xlink" x="0px" y="0px"
	 width="27px" height="27px" viewBox="0 0 27 27" enable-background="new 0 0 27 27" xml:space="preserve">
<path fill="#196DB5" d="M23,0H4C1.8,0,0,1.8,0,4v19c0,2.2,1.8,4,4,4h19c2.2,0,4-1.8,4-4V4C27,1.8,25.2,0,23,0z"/>
<path fill="#FFFFFF" d="M23,1H4C2.3,1,1,2.3,1,4v19c0,1.7,1.3,3,3,3h19c1.7,0,3-1.3,3-3V4C26,2.3,24.7,1,23,1z"/>
<linearGradient id="SVGID_1_" gradientUnits="userSpaceOnUse" x1="248.6504" y1="-383.5542" x2="248.6504" y2="-406.4912" gradientTransform="matrix(1 0 0 -1 -235.0996 -381.4902)">
	<stop  offset="0" style="stop-color:#DCDFE4"/>
	<stop  offset="1" style="stop-color:#FFFFFF"/>
</linearGradient>
<path fill="url(#SVGID_1_)" d="M22.8,2.1H4.2C3,2.1,2.1,3,2.1,4.2v18.6C2.1,24,3,25,4.2,25h18.6c1.2,0,2.2-1,2.2-2.2V4.2
	C25,3,24,2.1,22.8,2.1z"/>
<path fill="#666666" d="M16.4,21c3.1-1.8,4-3.5,3.4-5.8c-0.4-1.7-1.7-3.1-1.8-4.8c-0.5,0.9-0.5,1.5-0.6,2.5c-1.5-2-3.2-4.5-2.8-6.9
	c0,0-2.9,1-4.2,5.5c-0.7-0.7-0.6-2-0.3-2.7c-1,0.7-7.1,7.6,1,12.1c-1.5-2.9-0.4-7,2.2-8.8c-0.2,0.8,0.1,2.9,1.2,4.2
	c-0.3-1.3,0.4-2.2,0.4-2.2s0.2,1.2,1.1,2.5C16.8,17.8,17.4,19,16.4,21z"/>
<g>
	<path fill="#BC2A4D" d="M20.5,3h1v3h-1V3z"/>
	<path fill="#BC2A4D" d="M23.8,4.6l0.3,1l-2.9,0.9l-0.3-1L23.8,4.6z"/>
	<path fill="#BC2A4D" d="M23.2,8.1l-0.8,0.6l-1.8-2.4l0.8-0.6L23.2,8.1z"/>
	<path fill="#BC2A4D" d="M19.7,8.7l-0.8-0.6l1.8-2.4l0.8,0.6L19.7,8.7z"/>
	<path fill="#BC2A4D" d="M18,5.5l0.3-1l2.9,0.9l-0.3,1L18,5.5z"/>
</g>
</svg>
