<svg xmlns="http://www.w3.org/2000/svg" width="27" height="27"><path fill="#196DB5" d="M23 0H4C1.8 0 0 1.8 0 4v19c0 2.2 1.8 4 4 4h19c2.2 0 4-1.8 4-4V4c0-2.2-1.8-4-4-4z"/><path fill="#FFF" d="M23 1H4C2.3 1 1 2.3 1 4v19c0 1.7 1.3 3 3 3h19c1.7 0 3-1.3 3-3V4c0-1.7-1.3-3-3-3z"/><linearGradient id="c" gradientUnits="userSpaceOnUse" x1="13.531" y1="2.063" x2="13.531" y2="25"><stop offset="0" stop-color="#dcdfe4"/><stop offset="1" stop-color="#fff"/></linearGradient><path fill="url(#c)" d="M22.8 2.1H4.2C3 2.1 2.1 3 2.1 4.2v18.6C2.1 24 3 25 4.2 25h18.6c1.2 0 2.2-1 2.2-2.2V4.2c0-1.2-1-2.1-2.2-2.1z"/><g fill="#196DB5"><path d="M9 9v8.9h1.3v-7.6h7.6V9"/><path d="M10.3 12v5.8h1.3v-4.6l4.7 4.7 1.8-1.8-4.7-4.7H18v-1.3h-7.6"/></g></svg>