<svg xmlns="http://www.w3.org/2000/svg" width="27" height="27"><path fill="#196DB5" d="M23 0H4C1.8 0 0 1.8 0 4v19c0 2.2 1.8 4 4 4h19c2.2 0 4-1.8 4-4V4c0-2.2-1.8-4-4-4z"/><path fill="#FFF" d="M23 1H4C2.3 1 1 2.3 1 4v19c0 1.7 1.3 3 3 3h19c1.7 0 3-1.3 3-3V4c0-1.7-1.3-3-3-3z"/><linearGradient id="c" gradientUnits="userSpaceOnUse" x1="13.531" y1="2.063" x2="13.531" y2="25"><stop offset="0" stop-color="#dcdfe4"/><stop offset="1" stop-color="#fff"/></linearGradient><path fill="url(#c)" d="M22.8 2.1H4.2C3 2.1 2.1 3 2.1 4.2v18.6C2.1 24 3 25 4.2 25h18.6c1.2 0 2.2-1 2.2-2.2V4.2c0-1.2-1-2.1-2.2-2.1z"/><path fill="none" d="M15.9 10.9c0 .1 0 .1 0 0 0 .1 0 .1 0 0zM13 9c-.9.2-1.6.8-1.9 1.7.3-.8 1-1.5 1.9-1.7zm-2 2c.1 0 .1 0 0 0 .1 0 .1 0 0 0zm4.9-.3c-.3-.8-1-1.5-1.9-1.7.9.2 1.6.9 1.9 1.7zm-2.4-.7c-.8 0-1.5.7-1.5 1.5V13h3v-1.5c0-.8-.7-1.5-1.5-1.5z"/><path fill="#666" d="M17 13v-1.5C17 9.6 15.4 8 13.5 8S10 9.6 10 11.5V13H9v6h9v-6h-1zm0 5h-7v-4h1v-3.1c0-.1 0-.2.1-.2.3-.8 1-1.5 1.9-1.7h1c.9.2 1.6.8 1.9 1.7 0 .1 0 .2.1.2V14h1v4z"/><path fill="#666" d="M16 13v-2.1c0-.1 0-.2-.1-.2-.3-.8-1-1.5-1.9-1.7h-1c-.9.2-1.6.8-1.9 1.7 0 .1 0 .2-.1.2V14h-1v4h7v-4h-1v-1zm-1 1h-3v-2.5c0-.8.7-1.5 1.5-1.5s1.5.7 1.5 1.5V14z"/><path fill="#666" d="M12 13h3v1h-3v-1z"/></svg>